<svg xmlns="http://www.w3.org/2000/svg" width="2271" height="2271" viewBox="0 0 2271 2271" version="1.1">
	<path d="M 1224.585 534.119 C 1212.880 536.864, 1199.252 547.649, 1193.738 558.530 C 1186.468 572.878, 1167.485 615.566, 1163.628 626.241 C 1156.592 645.713, 1151.151 669.670, 1148.444 693.097 C 1146.180 712.692, 1146.889 748.673, 1149.921 767.961 C 1156.093 807.236, 1168.477 839.956, 1193.273 882.500 C 1199.043 892.400, 1203.417 900.634, 1202.992 900.797 C 1202.567 900.960, 1182.746 896.572, 1158.945 891.045 C 1135.144 885.518, 1115.571 881.110, 1115.450 881.248 C 1115.330 881.387, 1111.125 906.250, 1106.108 936.500 C 1101.090 966.750, 1096.780 992.413, 1096.529 993.528 C 1096.103 995.423, 1098.290 996.067, 1129.787 1003.323 C 1148.329 1007.595, 1189.270 1017.065, 1220.768 1024.367 L 1278.035 1037.643 1278.810 1034.653 C 1279.520 1031.915, 1288.936 1047.860, 1390.802 1224.302 C 1451.972 1330.253, 1504.294 1421.489, 1507.073 1427.049 C 1521.625 1456.163, 1527.880 1482.075, 1528.726 1516.756 C 1529.602 1552.623, 1525.543 1574.688, 1511.765 1608.951 C 1507.197 1620.312, 1506.801 1621.935, 1507.246 1627.481 C 1508.085 1637.925, 1513.656 1646.283, 1522.883 1650.941 C 1537.075 1658.103, 1630.141 1700.467, 1635.339 1702.131 C 1651.394 1707.270, 1669.909 1701.429, 1680.451 1687.899 C 1684.671 1682.482, 1700.145 1648.979, 1706.413 1631.687 C 1737.511 1545.897, 1731.902 1450.819, 1691.004 1370.500 C 1687.924 1364.450, 1612.783 1233.735, 1524.025 1080.023 C 1435.267 926.310, 1360.525 796.035, 1357.933 790.523 C 1346.338 765.867, 1341.158 737.287, 1343.101 708.684 C 1344.592 686.737, 1348.747 670.639, 1358.763 648 C 1365.535 632.694, 1366.973 627.526, 1366.988 618.432 C 1367.017 601.258, 1356.756 583.977, 1342.128 576.565 C 1329.290 570.059, 1253.566 535.949, 1248.859 534.551 C 1243.180 532.864, 1230.869 532.645, 1224.585 534.119 M 800.951 551.345 C 791.308 553.981, 782.571 562.077, 779.668 571.065 C 778.122 575.853, 777.999 606.882, 777.984 996.865 C 777.974 1264.752, 777.610 1421.858, 776.981 1429.500 C 775.142 1451.851, 770.357 1474.124, 763.409 1492.676 C 761.411 1498.008, 746.931 1530.300, 731.230 1564.435 C 699.601 1633.197, 699.532 1633.394, 704.224 1641.470 C 705.492 1643.654, 707.914 1646.373, 709.605 1647.513 C 715.408 1651.424, 851.115 1713.206, 855.066 1713.736 C 859.990 1714.396, 866.718 1711.958, 870.251 1708.232 C 873.132 1705.194, 920.616 1602.548, 930.545 1577.893 C 948.802 1532.560, 960.075 1483.704, 963.967 1433.050 C 964.580 1425.065, 965.002 1379.153, 965.006 1320.050 C 965.009 1254.185, 965.363 1219.232, 966.052 1216.753 C 968.184 1209.076, 978.333 1202.902, 986.348 1204.406 C 988.234 1204.759, 991.260 1206.050, 993.072 1207.274 C 995.108 1208.649, 1017.417 1238.441, 1051.434 1285.211 C 1081.720 1326.853, 1108.215 1362.972, 1110.312 1365.475 C 1117.778 1374.393, 1130.492 1382.203, 1143.017 1385.564 C 1151.618 1387.873, 1167.331 1387.880, 1176 1385.579 C 1196.615 1380.109, 1213.145 1366.017, 1221.068 1347.159 C 1224.479 1339.041, 1236.838 1276.377, 1237.714 1262.757 C 1238.771 1246.336, 1234.384 1229.753, 1224.816 1214 C 1221.976 1209.325, 1197.156 1169.050, 1169.659 1124.500 C 1142.163 1079.950, 1114.290 1034.725, 1107.719 1024 C 1101.149 1013.275, 1095.205 1003.825, 1094.510 1003 C 1092.440 1000.543, 999.607 839.205, 995.151 830.321 C 983.537 807.163, 973.868 777.717, 969.599 752.500 C 965.853 730.372, 965.679 726.389, 965.090 649.500 L 964.500 572.500 961.828 567.437 C 958.634 561.385, 952.461 555.568, 946.122 552.637 C 941.559 550.527, 940.637 550.497, 873.500 550.301 C 821.859 550.149, 804.406 550.401, 800.951 551.345" stroke="none" fill="#000000" fill-rule="evenodd"/>
</svg>